HIERARCHY
ROOT root
{
	OFFSET 0.000000 0.000000 0.000000
	CHANNELS 6 Xposition Yposition Zposition Zrotation Yrotation Xrotation
	JOINT lhip
	{
		OFFSET 0.058581 -0.082280 -0.017664
		CHANNELS 3 Zrotation Yrotation Xrotation
		JOINT lknee
		{
			OFFSET 0.043451 -0.386469 0.008037
			CHANNELS 3 Zrotation Yrotation Xrotation
			JOINT lankle
			{
				OFFSET -0.014790 -0.426874 -0.037428
				CHANNELS 3 Zrotation Yrotation Xrotation
				JOINT ltoe
				{
					OFFSET 0.041054 -0.060286 0.122042
					CHANNELS 3 Zrotation Yrotation Xrotation
					End Site
					{
						OFFSET 0.000000 0.000000 0.000000
					}
				}
			}
		}
	}
	JOINT rhip
	{
		OFFSET -0.060310 -0.090513 -0.013543
		CHANNELS 3 Zrotation Yrotation Xrotation
		JOINT rknee
		{
			OFFSET -0.043257 -0.383688 -0.004843
			CHANNELS 3 Zrotation Yrotation Xrotation
			JOINT rankle
			{
				OFFSET 0.019056 -0.420046 -0.034562
				CHANNELS 3 Zrotation Yrotation Xrotation
				JOINT rtoe
				{
					OFFSET -0.034840 -0.062106 0.130323
					CHANNELS 3 Zrotation Yrotation Xrotation
					End Site
					{
						OFFSET 0.000000 0.000000 0.000000
					}
				}
			}
		}
	}
	JOINT lowerback
	{
		OFFSET 0.004439 0.124404 -0.038385
		CHANNELS 3 Zrotation Yrotation Xrotation
		JOINT upperback
		{
			OFFSET 0.004488 0.137956 0.026820
			CHANNELS 3 Zrotation Yrotation Xrotation
			JOINT chest
			{
				OFFSET -0.002265 0.056032 0.002855
				CHANNELS 3 Zrotation Yrotation Xrotation
				JOINT lowerneck
				{
					OFFSET -0.013390 0.211636 -0.033468
					CHANNELS 3 Zrotation Yrotation Xrotation
					JOINT upperneck
					{
						OFFSET 0.010113 0.088937 0.050410
						CHANNELS 3 Zrotation Yrotation Xrotation
						End Site
						{
							OFFSET 0.000000 0.000000 0.000000
						}
					}
				}
				JOINT lclavicle
				{
					OFFSET 0.071702 0.114000 -0.018898
					CHANNELS 3 Zrotation Yrotation Xrotation
					JOINT lshoulder
					{
						OFFSET 0.122921 0.045205 -0.019046
						CHANNELS 3 Zrotation Yrotation Xrotation
						JOINT lelbow
						{
							OFFSET 0.255332 -0.015649 -0.022946
							CHANNELS 3 Zrotation Yrotation Xrotation
							JOINT lwrist
							{
								OFFSET 0.265709 0.012698 -0.007375
								CHANNELS 3 Zrotation Yrotation Xrotation
								End Site
								{
									OFFSET 0.000000 0.000000 0.000000
								}
							}
						}
					}
				}
				JOINT rclavicle
				{
					OFFSET -0.082954 0.112472 -0.023707
					CHANNELS 3 Zrotation Yrotation Xrotation
					JOINT rshoulder
					{
						OFFSET -0.113228 0.046853 -0.008472
						CHANNELS 3 Zrotation Yrotation Xrotation
						JOINT relbow
						{
							OFFSET -0.260127 -0.014369 -0.031269
							CHANNELS 3 Zrotation Yrotation Xrotation
							JOINT rwrist
							{
								OFFSET -0.269108 0.006794 -0.006027
								CHANNELS 3 Zrotation Yrotation Xrotation
								End Site
								{
									OFFSET 0.000000 0.000000 0.000000
								}
							}
						}
					}
				}
			}
		}
	}
}
MOTION
Frames: 16
Frame Time: 0.033333
0.085027 -0.453517 0.867332 170.828911 0.930477 98.721647 7.456932 -1.998323 -43.797449 -5.895007 8.660687 61.467282 3.767130 14.247542 -38.340853 0.000000 -0.000000 0.000000 -2.247684 8.204445 -46.756411 1.732439 -8.451955 64.828139 4.690370 -7.164225 -33.055799 0.000000 -0.000000 0.000000 -3.331895 2.005580 28.952681 3.802542 -0.304708 -13.589585 2.480835 -2.411715 2.367874 6.347463 -1.008052 -13.811428 7.362724 -11.992147 -5.136549 -22.532992 -10.549508 -1.353387 -41.982371 -18.149279 6.880799 29.606629 -55.174055 -19.831001 21.380827 -12.747018 -4.437991 20.637507 7.438676 -1.222820 44.217636 5.459979 15.011042 -11.903706 61.493089 6.894253 -4.689112 9.412514 -4.691654 
0.082631 -0.445515 0.876971 162.850538 1.117254 97.861701 7.164703 1.783623 -39.318560 -5.834424 10.278179 58.919427 3.766950 15.660186 -37.510897 0.000000 -0.000000 0.000000 -1.538158 9.986305 -45.405928 3.674112 -5.724389 62.719374 5.084068 -5.446825 -30.540471 0.000000 -0.000000 0.000000 -4.280727 0.701680 27.484624 4.341130 -1.401160 -13.985860 2.187289 -3.704486 2.993300 7.151642 -1.413542 -14.378273 7.822770 -13.128876 -1.870854 -19.849683 -12.919813 -2.686876 -37.103679 -23.589253 3.820849 40.207815 -58.771924 -29.779365 22.557883 -13.385358 -3.930215 17.837221 5.576080 -3.580702 43.512392 4.074347 15.755170 -15.367665 70.521210 5.104376 -4.950665 10.236762 -8.925237 
0.081583 -0.435312 0.896728 154.398765 1.312642 97.002328 6.891803 5.332727 -33.560833 -6.171802 11.482945 53.881585 3.593333 16.677846 -34.762703 0.000000 -0.000000 0.000000 -0.457960 10.644551 -42.645549 5.913106 -2.532880 58.466238 5.764708 -3.028938 -26.270122 0.000000 -0.000000 0.000000 -5.186996 -0.748539 24.952807 4.700661 -2.561922 -13.982007 1.773471 -5.252970 3.635978 8.484405 -1.535465 -14.107239 7.917623 -13.929126 1.388803 -16.856643 -13.757318 -4.635506 -31.832468 -27.543718 0.083931 52.286159 -62.311417 -40.634930 22.484744 -15.292306 -2.413013 14.805265 3.484450 -6.668139 43.145125 4.337335 16.696857 -15.866985 77.524939 5.556345 -6.266115 10.876648 -12.517518 
0.082469 -0.424455 0.928711 144.798944 1.623675 95.805970 6.846367 8.106841 -25.797019 -7.201263 11.871124 45.824438 2.660700 17.600270 -29.389687 0.000000 -0.000000 0.000000 0.970025 10.352515 -37.749819 8.279669 1.421341 51.231660 6.838775 -0.117252 -19.824337 0.000000 -0.000000 0.000000 -6.150825 -2.038587 22.325863 4.970771 -3.744335 -13.631544 1.644067 -6.122421 3.800236 9.337389 -1.679186 -12.216515 7.975533 -14.593351 4.455823 -13.990312 -13.739204 -6.158582 -27.294783 -28.573162 -3.248096 65.183821 -65.690977 -52.949116 21.704001 -14.786608 -2.016156 12.558267 3.090369 -8.678541 43.104991 5.468226 17.440659 -14.766492 81.111375 6.471659 -8.941434 10.777242 -14.489083 
0.087906 -0.413848 0.971809 133.071232 2.137964 94.161199 6.381551 10.141603 -16.679790 -6.605198 11.488000 35.565996 2.796057 18.438267 -20.240296 0.000000 -0.000000 0.000000 2.507729 9.638537 -30.719551 9.449848 6.362602 40.802717 8.835283 4.901460 -8.613223 0.000000 -0.000000 0.000000 -6.897747 -3.006120 19.583205 4.885354 -4.090661 -12.702709 1.581553 -5.870487 3.006369 9.827764 -2.029399 -8.691432 6.982922 -14.525774 8.934988 -13.198524 -11.808729 -6.668336 -24.097664 -27.333045 -3.971683 76.267017 -68.346621 -63.491405 20.919388 -16.922690 -1.165874 13.018861 4.042340 -9.327152 44.751424 8.552003 19.386297 -9.324611 79.433731 9.845195 -12.607890 11.542941 -14.765035 
0.096550 -0.408341 1.021718 119.628117 3.439795 92.382797 5.539210 10.187213 -8.914004 -3.113611 12.766085 26.121466 2.986438 20.363297 -6.627929 0.000000 -0.000000 0.000000 4.565646 8.667323 -23.249094 8.581072 9.388649 28.064762 14.258557 9.820375 10.778789 0.000000 -0.000000 0.000000 -6.745790 -3.009372 16.698355 4.833626 -3.559480 -11.013003 1.888891 -4.436710 1.536864 9.425706 -2.540936 -4.127501 6.304251 -13.852824 12.936018 -14.361485 -8.279230 -6.829069 -24.400125 -25.028839 -0.992825 80.120503 -69.599183 -67.435186 21.892667 -18.595106 -0.713320 16.598879 4.645068 -9.360469 46.103932 12.360563 21.914172 -1.244899 74.699899 15.404575 -13.940579 11.997109 -13.086524 
0.107038 -0.407353 1.070959 105.827867 4.906261 90.818855 4.456527 8.567097 -3.821960 0.374695 16.768253 18.722684 4.283916 22.364107 9.065316 0.000000 -0.000000 0.000000 5.655137 4.808097 -17.108077 7.473419 3.371338 17.689054 14.918706 5.007309 27.685439 0.000000 -0.000000 0.000000 -5.858290 -2.117367 12.735924 4.863771 -2.837575 -7.116656 2.341307 -2.940264 -1.147831 8.763393 -4.189922 2.893782 6.686389 -11.294683 13.164554 -16.913204 -4.850176 -4.687940 -23.729836 -20.668592 0.917265 78.314892 -70.803430 -65.703680 20.905808 -17.316577 0.582069 21.052910 5.894322 -6.618610 46.086668 15.040748 23.210394 2.771707 69.772269 16.398592 -13.928577 11.657658 -12.656705 
0.116109 -0.409944 1.110357 92.585633 4.818008 90.419456 1.443550 4.249659 -0.124916 -1.280561 10.258072 10.898162 0.838514 16.094027 9.791071 0.000000 -0.000000 0.000000 3.855359 0.599162 -13.008816 5.428966 -9.309297 12.692766 3.157463 -8.298003 21.333135 0.000000 -0.000000 0.000000 -5.813349 -1.147144 7.541902 4.604105 -2.008153 -2.471675 2.529113 -1.575518 -3.570104 9.835419 -5.057546 9.275253 6.464137 -9.709537 10.663909 -20.013220 -1.887875 -1.742054 -22.918641 -15.662406 1.147691 70.920042 -70.512937 -57.595336 19.744316 -16.634178 -0.413209 25.007257 7.802992 -2.381101 44.467164 14.842050 23.204385 1.023575 67.523414 14.254080 -12.589413 11.368752 -11.610910 
0.118309 -0.416190 1.138054 79.987675 4.550687 91.785284 0.015039 -0.720709 -1.632226 -5.564190 -1.073421 6.050991 -2.615387 10.990186 9.770724 0.000000 -0.000000 0.000000 1.979805 -0.027022 -12.836286 2.823935 -16.106399 13.328163 -15.148379 -23.406516 18.822765 0.000000 -0.000000 0.000000 -5.888676 -0.097818 2.035673 4.530345 -0.992861 1.044125 2.927595 -0.404299 -5.263270 8.128760 -6.604383 14.704032 7.112848 -5.442289 9.051827 -23.727416 0.238986 1.097454 -22.107674 -10.075850 1.451844 61.036724 -67.620731 -48.680766 19.571569 -16.569294 -0.278434 28.197735 8.410891 1.958645 40.453846 14.278276 21.257459 3.923306 66.831972 16.182977 -13.738293 11.876052 -10.234180 
0.117894 -0.421278 1.153719 67.815926 4.030960 92.632177 -1.318235 -2.063618 -6.881734 -5.557634 -11.451529 10.075250 -1.282477 12.438661 5.735173 0.000000 -0.000000 0.000000 0.379067 -3.111992 -14.735454 3.568923 -12.229689 16.632345 -10.783692 -15.261722 8.400059 0.000000 -0.000000 0.000000 -6.617400 2.581761 -2.588473 5.336865 -1.843963 6.629415 2.610431 1.093745 -7.901550 7.435131 -5.068677 15.919283 8.050628 -5.669260 8.421207 -25.487225 1.028984 -4.642606 -24.126584 -2.809420 6.717383 47.291909 -62.683158 -37.468368 20.346415 -18.302473 0.629662 27.505937 10.436915 -2.777944 39.968388 7.338632 18.555517 13.549549 64.285126 21.015429 -11.933400 16.239407 -3.747442 
0.116703 -0.425255 1.154830 55.919472 3.702653 91.695317 -0.514545 -5.141036 -8.695289 -5.527284 -15.293875 10.954377 -1.116714 10.207439 2.306178 0.000000 -0.000000 0.000000 -0.624798 -4.568608 -14.912998 4.331068 -9.512801 18.493052 -7.490969 -12.763616 0.171189 0.000000 -0.000000 0.000000 -6.499319 4.057721 -2.161294 4.968273 -1.046856 7.140942 2.450320 1.821032 -8.039618 6.578296 -4.813474 15.002168 8.410328 -3.413590 10.479247 -27.674657 3.065533 -5.381593 -25.249791 0.541129 8.354602 39.855693 -56.023967 -31.838495 19.245879 -18.311779 2.046430 28.387245 9.134671 -2.512554 37.743671 6.830926 17.548623 10.744284 60.871827 16.872229 -11.598356 17.449127 -1.494864 
0.116980 -0.426949 1.142226 45.103492 3.404844 90.343176 0.771720 -7.782590 -9.471534 -5.555002 -17.155392 11.016477 -1.294601 8.734460 1.732839 0.000000 -0.000000 0.000000 -1.301730 -6.239682 -13.538229 4.659150 -10.154662 17.658050 -8.221180 -12.370221 1.868540 0.000000 -0.000000 0.000000 -6.141464 4.899967 -0.433480 4.441341 -0.483304 6.633214 1.997498 2.171889 -7.599255 6.910794 -4.787347 13.803438 7.955818 -1.289272 12.356490 -28.566410 4.940211 -5.204007 -28.343032 2.441649 9.382148 35.951094 -49.563481 -29.461601 19.117515 -18.569616 1.819263 27.914184 7.398920 -2.163640 36.617346 7.267488 15.918985 5.516473 56.698958 11.053318 -11.691447 17.997777 0.801848 
0.115931 -0.429749 1.118190 35.184143 3.562493 89.368508 2.371368 -8.909998 -11.315319 -7.066059 -19.250112 15.199467 -2.145715 9.270995 0.460658 0.000000 -0.000000 0.000000 -0.560718 -6.434304 -12.549210 4.791661 -13.621751 18.047870 -8.802356 -14.793296 2.120870 0.000000 -0.000000 0.000000 -5.634247 5.272641 1.171278 3.703560 -0.178019 5.160599 1.805962 1.854563 -6.503649 6.740321 -3.835477 13.002416 8.339969 0.932778 12.625277 -28.611693 5.924326 -4.325587 -31.517171 4.504199 9.203123 32.726686 -44.790723 -27.504876 19.789494 -18.233290 0.531403 27.246818 6.243372 -1.774732 34.829779 7.097662 12.364981 2.118038 53.596239 7.183142 -11.626115 18.454610 1.768141 
0.114949 -0.434085 1.085150 26.542933 3.787730 88.644309 3.564667 -11.051826 -12.798914 -9.673152 -21.431461 21.134620 -2.343646 9.650882 1.116647 0.000000 -0.000000 0.000000 1.074205 -6.285558 -11.887651 2.763384 -17.909703 22.651955 -19.909845 -21.016384 11.253486 0.000000 -0.000000 0.000000 -5.653001 5.028723 1.182019 3.252730 -0.599116 5.476051 1.754071 1.426594 -6.117558 6.627489 -2.721752 12.419003 8.638274 2.957163 11.298433 -29.271249 5.181297 -3.011436 -33.178721 7.123277 8.353812 30.533706 -42.570873 -25.777582 19.440988 -16.943486 -0.170502 26.341267 5.826217 -2.252409 32.146088 5.079301 8.160812 0.733291 52.729805 4.039219 -11.523592 17.838696 2.354547 
0.116713 -0.437410 1.041933 17.315452 3.717554 87.490969 3.659717 -11.819632 -12.469757 -11.660745 -22.429416 25.529054 -2.732048 11.400048 -4.022176 0.000000 -0.000000 0.000000 2.265720 -4.574822 -10.378917 4.495277 -14.734547 24.253865 -11.441530 -20.746396 -7.971915 0.000000 -0.000000 0.000000 -4.235645 4.903830 1.929010 1.939234 -0.990251 5.551188 1.649077 0.947404 -6.199992 4.387964 -1.582760 12.893865 10.113588 6.037463 8.237489 -30.434085 4.478583 -3.263646 -33.626577 8.622922 8.249529 27.764939 -40.130510 -23.607925 17.584075 -17.783125 1.465658 24.811635 5.880910 -1.854755 28.312974 4.068756 4.494880 -0.255219 52.203636 0.089549 -12.115178 19.905667 3.771160 
0.118359 -0.440830 0.989384 8.092587 2.774114 86.239777 3.267996 -9.974935 -11.456631 -14.147179 -18.534346 32.355985 0.253764 13.513169 -23.971187 0.000000 -0.000000 0.000000 2.742463 -3.790301 -9.635794 7.321891 -7.055845 25.679466 -5.099267 -16.355148 -18.534581 0.000000 -0.000000 0.000000 -3.904029 4.705805 3.191381 1.603392 -1.209091 2.956917 1.294686 0.920163 -3.331223 3.857287 -0.967742 8.085907 9.251951 9.106867 9.852600 -30.389325 3.408721 -5.249601 -34.721921 8.523555 10.151819 26.305078 -36.321136 -21.324772 13.961481 -16.997326 3.223189 23.240601 5.629058 -4.822189 23.977133 3.500449 4.138645 -0.909540 51.132382 -1.142044 -10.974913 19.253071 3.678408 
